<svg width="26" height="26" viewBox="0 0 26 26" fill="none" xmlns="http://www.w3.org/2000/svg">
<path d="M7.58325 9.75L12.9999 13.5417L18.4166 9.75" stroke="#B0B0B0" stroke-linecap="round" stroke-linejoin="round"/>
<path d="M2.16663 18.4167V7.58341C2.16663 7.00878 2.3949 6.45768 2.80123 6.05135C3.20756 5.64502 3.75866 5.41675 4.33329 5.41675H21.6666C22.2413 5.41675 22.7924 5.64502 23.1987 6.05135C23.605 6.45768 23.8333 7.00878 23.8333 7.58341V18.4167C23.8333 18.9914 23.605 19.5425 23.1987 19.9488C22.7924 20.3551 22.2413 20.5834 21.6666 20.5834H4.33329C3.75866 20.5834 3.20756 20.3551 2.80123 19.9488C2.3949 19.5425 2.16663 18.9914 2.16663 18.4167Z" stroke="#B0B0B0"/>
</svg>
