<svg width="286" height="67" viewBox="0 0 286 67" fill="none" xmlns="http://www.w3.org/2000/svg">
<path d="M0.479216 35.2C0.479216 29.1573 1.82855 23.76 4.52722 19.008C7.28455 14.1973 11.0099 10.472 15.7032 7.832C20.4552 5.13333 25.7646 3.784 31.6312 3.784C38.4952 3.784 44.5086 5.544 49.6712 9.064C54.8339 12.584 58.4419 17.4533 60.4952 23.672H46.3272C44.9192 20.7387 42.9246 18.5387 40.3432 17.072C37.8206 15.6053 34.8872 14.872 31.5432 14.872C27.9646 14.872 24.7672 15.7227 21.9512 17.424C19.1939 19.0667 17.0232 21.4133 15.4392 24.464C13.9139 27.5147 13.1512 31.0933 13.1512 35.2C13.1512 39.248 13.9139 42.8267 15.4392 45.936C17.0232 48.9867 19.1939 51.3627 21.9512 53.064C24.7672 54.7067 27.9646 55.528 31.5432 55.528C34.8872 55.528 37.8206 54.7947 40.3432 53.328C42.9246 51.8027 44.9192 49.5733 46.3272 46.64H60.4952C58.4419 52.9173 54.8339 57.816 49.6712 61.336C44.5672 64.7973 38.5539 66.528 31.6312 66.528C25.7646 66.528 20.4552 65.208 15.7032 62.568C11.0099 59.8693 7.28455 56.144 4.52722 51.392C1.82855 46.64 0.479216 41.2427 0.479216 35.2ZM97.5941 16.544C101.29 16.544 104.575 17.3653 107.45 19.008C110.325 20.592 112.554 22.968 114.138 26.136C115.781 29.2453 116.602 33 116.602 37.4V66H104.282V39.072C104.282 35.2 103.314 32.2373 101.378 30.184C99.4421 28.072 96.8021 27.016 93.4581 27.016C90.0554 27.016 87.3568 28.072 85.3621 30.184C83.4261 32.2373 82.4581 35.2 82.4581 39.072V66H70.1381V0.879999H82.4581V23.32C84.0421 21.208 86.1541 19.5653 88.7941 18.392C91.4341 17.16 94.3674 16.544 97.5941 16.544ZM124.27 41.448C124.27 36.52 125.238 32.1493 127.174 28.336C129.168 24.5227 131.838 21.5893 135.182 19.536C138.584 17.4827 142.368 16.456 146.534 16.456C150.171 16.456 153.339 17.1893 156.038 18.656C158.795 20.1227 160.995 21.9707 162.638 24.2V17.248H175.046V66H162.638V58.872C161.054 61.16 158.854 63.0667 156.038 64.592C153.28 66.0587 150.083 66.792 146.446 66.792C142.339 66.792 138.584 65.736 135.182 63.624C131.838 61.512 129.168 58.5493 127.174 54.736C125.238 50.864 124.27 46.4347 124.27 41.448ZM162.638 41.624C162.638 38.632 162.051 36.08 160.878 33.968C159.704 31.7973 158.12 30.1547 156.126 29.04C154.131 27.8667 151.99 27.28 149.702 27.28C147.414 27.28 145.302 27.8373 143.366 28.952C141.43 30.0667 139.846 31.7093 138.614 33.88C137.44 35.992 136.854 38.5147 136.854 41.448C136.854 44.3813 137.44 46.9627 138.614 49.192C139.846 51.3627 141.43 53.0347 143.366 54.208C145.36 55.3813 147.472 55.968 149.702 55.968C151.99 55.968 154.131 55.4107 156.126 54.296C158.12 53.1227 159.704 51.48 160.878 49.368C162.051 47.1973 162.638 44.616 162.638 41.624ZM200.542 27.368V50.952C200.542 52.5947 200.924 53.7973 201.686 54.56C202.508 55.264 203.857 55.616 205.734 55.616H211.454V66H203.71C193.326 66 188.134 60.9547 188.134 50.864V27.368H182.326V17.248H188.134V5.192H200.542V17.248H211.454V27.368H200.542ZM231.756 4.576V66H219.436V4.576H231.756ZM264.256 66.616C259.973 66.616 256.101 65.8827 252.64 64.416C249.237 62.9493 246.538 60.8373 244.544 58.08C242.549 55.3227 241.522 52.0667 241.464 48.312H254.664C254.84 50.8347 255.72 52.8293 257.304 54.296C258.946 55.7627 261.176 56.496 263.992 56.496C266.866 56.496 269.125 55.8213 270.768 54.472C272.41 53.064 273.232 51.2453 273.232 49.016C273.232 47.1973 272.674 45.7013 271.56 44.528C270.445 43.3547 269.037 42.4453 267.336 41.8C265.693 41.096 263.405 40.3333 260.472 39.512C256.482 38.3387 253.226 37.1947 250.704 36.08C248.24 34.9067 246.098 33.176 244.28 30.888C242.52 28.5413 241.64 25.432 241.64 21.56C241.64 17.9227 242.549 14.7547 244.368 12.056C246.186 9.35733 248.738 7.304 252.024 5.896C255.309 4.42933 259.064 3.696 263.288 3.696C269.624 3.696 274.757 5.25067 278.688 8.36C282.677 11.4107 284.877 15.6933 285.288 21.208H271.736C271.618 19.096 270.709 17.3653 269.008 16.016C267.365 14.608 265.165 13.904 262.408 13.904C260.002 13.904 258.066 14.52 256.6 15.752C255.192 16.984 254.488 18.7733 254.488 21.12C254.488 22.7627 255.016 24.1413 256.072 25.256C257.186 26.312 258.536 27.192 260.12 27.896C261.762 28.5413 264.05 29.304 266.984 30.184C270.973 31.3573 274.229 32.5307 276.752 33.704C279.274 34.8773 281.445 36.6373 283.264 38.984C285.082 41.3307 285.992 44.4107 285.992 48.224C285.992 51.5093 285.141 54.56 283.44 57.376C281.738 60.192 279.245 62.4507 275.96 64.152C272.674 65.7947 268.773 66.616 264.256 66.616Z" fill="#1B1738"/>
<path d="M0.479216 35.2C0.479216 29.1573 1.82855 23.76 4.52722 19.008C7.28455 14.1973 11.0099 10.472 15.7032 7.832C20.4552 5.13333 25.7646 3.784 31.6312 3.784C38.4952 3.784 44.5086 5.544 49.6712 9.064C54.8339 12.584 58.4419 17.4533 60.4952 23.672H46.3272C44.9192 20.7387 42.9246 18.5387 40.3432 17.072C37.8206 15.6053 34.8872 14.872 31.5432 14.872C27.9646 14.872 24.7672 15.7227 21.9512 17.424C19.1939 19.0667 17.0232 21.4133 15.4392 24.464C13.9139 27.5147 13.1512 31.0933 13.1512 35.2C13.1512 39.248 13.9139 42.8267 15.4392 45.936C17.0232 48.9867 19.1939 51.3627 21.9512 53.064C24.7672 54.7067 27.9646 55.528 31.5432 55.528C34.8872 55.528 37.8206 54.7947 40.3432 53.328C42.9246 51.8027 44.9192 49.5733 46.3272 46.64H60.4952C58.4419 52.9173 54.8339 57.816 49.6712 61.336C44.5672 64.7973 38.5539 66.528 31.6312 66.528C25.7646 66.528 20.4552 65.208 15.7032 62.568C11.0099 59.8693 7.28455 56.144 4.52722 51.392C1.82855 46.64 0.479216 41.2427 0.479216 35.2ZM97.5941 16.544C101.29 16.544 104.575 17.3653 107.45 19.008C110.325 20.592 112.554 22.968 114.138 26.136C115.781 29.2453 116.602 33 116.602 37.4V66H104.282V39.072C104.282 35.2 103.314 32.2373 101.378 30.184C99.4421 28.072 96.8021 27.016 93.4581 27.016C90.0554 27.016 87.3568 28.072 85.3621 30.184C83.4261 32.2373 82.4581 35.2 82.4581 39.072V66H70.1381V0.879999H82.4581V23.32C84.0421 21.208 86.1541 19.5653 88.7941 18.392C91.4341 17.16 94.3674 16.544 97.5941 16.544ZM124.27 41.448C124.27 36.52 125.238 32.1493 127.174 28.336C129.168 24.5227 131.838 21.5893 135.182 19.536C138.584 17.4827 142.368 16.456 146.534 16.456C150.171 16.456 153.339 17.1893 156.038 18.656C158.795 20.1227 160.995 21.9707 162.638 24.2V17.248H175.046V66H162.638V58.872C161.054 61.16 158.854 63.0667 156.038 64.592C153.28 66.0587 150.083 66.792 146.446 66.792C142.339 66.792 138.584 65.736 135.182 63.624C131.838 61.512 129.168 58.5493 127.174 54.736C125.238 50.864 124.27 46.4347 124.27 41.448ZM162.638 41.624C162.638 38.632 162.051 36.08 160.878 33.968C159.704 31.7973 158.12 30.1547 156.126 29.04C154.131 27.8667 151.99 27.28 149.702 27.28C147.414 27.28 145.302 27.8373 143.366 28.952C141.43 30.0667 139.846 31.7093 138.614 33.88C137.44 35.992 136.854 38.5147 136.854 41.448C136.854 44.3813 137.44 46.9627 138.614 49.192C139.846 51.3627 141.43 53.0347 143.366 54.208C145.36 55.3813 147.472 55.968 149.702 55.968C151.99 55.968 154.131 55.4107 156.126 54.296C158.12 53.1227 159.704 51.48 160.878 49.368C162.051 47.1973 162.638 44.616 162.638 41.624ZM200.542 27.368V50.952C200.542 52.5947 200.924 53.7973 201.686 54.56C202.508 55.264 203.857 55.616 205.734 55.616H211.454V66H203.71C193.326 66 188.134 60.9547 188.134 50.864V27.368H182.326V17.248H188.134V5.192H200.542V17.248H211.454V27.368H200.542ZM231.756 4.576V66H219.436V4.576H231.756ZM264.256 66.616C259.973 66.616 256.101 65.8827 252.64 64.416C249.237 62.9493 246.538 60.8373 244.544 58.08C242.549 55.3227 241.522 52.0667 241.464 48.312H254.664C254.84 50.8347 255.72 52.8293 257.304 54.296C258.946 55.7627 261.176 56.496 263.992 56.496C266.866 56.496 269.125 55.8213 270.768 54.472C272.41 53.064 273.232 51.2453 273.232 49.016C273.232 47.1973 272.674 45.7013 271.56 44.528C270.445 43.3547 269.037 42.4453 267.336 41.8C265.693 41.096 263.405 40.3333 260.472 39.512C256.482 38.3387 253.226 37.1947 250.704 36.08C248.24 34.9067 246.098 33.176 244.28 30.888C242.52 28.5413 241.64 25.432 241.64 21.56C241.64 17.9227 242.549 14.7547 244.368 12.056C246.186 9.35733 248.738 7.304 252.024 5.896C255.309 4.42933 259.064 3.696 263.288 3.696C269.624 3.696 274.757 5.25067 278.688 8.36C282.677 11.4107 284.877 15.6933 285.288 21.208H271.736C271.618 19.096 270.709 17.3653 269.008 16.016C267.365 14.608 265.165 13.904 262.408 13.904C260.002 13.904 258.066 14.52 256.6 15.752C255.192 16.984 254.488 18.7733 254.488 21.12C254.488 22.7627 255.016 24.1413 256.072 25.256C257.186 26.312 258.536 27.192 260.12 27.896C261.762 28.5413 264.05 29.304 266.984 30.184C270.973 31.3573 274.229 32.5307 276.752 33.704C279.274 34.8773 281.445 36.6373 283.264 38.984C285.082 41.3307 285.992 44.4107 285.992 48.224C285.992 51.5093 285.141 54.56 283.44 57.376C281.738 60.192 279.245 62.4507 275.96 64.152C272.674 65.7947 268.773 66.616 264.256 66.616Z" fill="url(#paint0_linear_2_111)"/>
<defs>
<linearGradient id="paint0_linear_2_111" x1="-3" y1="21.3448" x2="17.5742" y2="115.292" gradientUnits="userSpaceOnUse">
<stop stop-color="#6C5FD4"/>
<stop offset="1" stop-color="#5DD3A9"/>
</linearGradient>
</defs>
</svg>
