<svg width="26" height="26" viewBox="0 0 26 26" fill="none" xmlns="http://www.w3.org/2000/svg">
<path d="M9.74992 17.3333C9.74992 17.6207 9.63578 17.8962 9.43262 18.0994C9.22945 18.3025 8.9539 18.4167 8.66659 18.4167C8.37927 18.4167 8.10372 18.3025 7.90055 18.0994C7.69739 17.8962 7.58325 17.6207 7.58325 17.3333C7.58325 17.046 7.69739 16.7705 7.90055 16.5673C8.10372 16.3641 8.37927 16.25 8.66659 16.25C8.9539 16.25 9.22945 16.3641 9.43262 16.5673C9.63578 16.7705 9.74992 17.046 9.74992 17.3333ZM14.0833 17.3333C14.0833 17.6207 13.9691 17.8962 13.766 18.0994C13.5628 18.3025 13.2872 18.4167 12.9999 18.4167C12.7126 18.4167 12.4371 18.3025 12.2339 18.0994C12.0307 17.8962 11.9166 17.6207 11.9166 17.3333C11.9166 17.046 12.0307 16.7705 12.2339 16.5673C12.4371 16.3641 12.7126 16.25 12.9999 16.25C13.2872 16.25 13.5628 16.3641 13.766 16.5673C13.9691 16.7705 14.0833 17.046 14.0833 17.3333ZM18.4166 17.3333C18.4166 17.6207 18.3025 17.8962 18.0993 18.0994C17.8961 18.3025 17.6206 18.4167 17.3333 18.4167C17.0459 18.4167 16.7704 18.3025 16.5672 18.0994C16.3641 17.8962 16.2499 17.6207 16.2499 17.3333C16.2499 17.046 16.3641 16.7705 16.5672 16.5673C16.7704 16.3641 17.0459 16.25 17.3333 16.25C17.6206 16.25 17.8961 16.3641 18.0993 16.5673C18.3025 16.7705 18.4166 17.046 18.4166 17.3333Z" fill="#B0B0B0"/>
<path d="M6.49996 10.8333V8.66667C6.49996 8.29833 6.53029 7.93542 6.58988 7.58333M19.5 10.8333V8.66667C19.5 7.34634 19.098 6.0573 18.3475 4.97108C17.5969 3.88487 16.5333 3.05298 15.2982 2.58614C14.0632 2.1193 12.7153 2.03963 11.4339 2.35775C10.1524 2.67586 8.99827 3.37667 8.12496 4.36692M11.9166 23.8333H8.66663C5.60296 23.8333 4.07004 23.8333 3.11888 22.8811C2.16663 21.9299 2.16663 20.397 2.16663 17.3333C2.16663 14.2697 2.16663 12.7367 3.11888 11.7856C4.07004 10.8333 5.60296 10.8333 8.66663 10.8333H17.3333C20.397 10.8333 21.9299 10.8333 22.881 11.7856C23.8333 12.7367 23.8333 14.2697 23.8333 17.3333C23.8333 20.397 23.8333 21.9299 22.881 22.8811C21.9299 23.8333 20.397 23.8333 17.3333 23.8333H16.25" stroke="#B0B0B0" stroke-linecap="round"/>
</svg>
