<svg width="100" height="35" viewBox="0 0 100 35" fill="none" xmlns="http://www.w3.org/2000/svg">
<path d="M10.858 16.6C10.858 14.952 11.226 13.48 11.962 12.184C12.714 10.872 13.73 9.856 15.01 9.136C16.306 8.4 17.754 8.032 19.354 8.032C21.226 8.032 22.866 8.512 24.274 9.472C25.682 10.432 26.666 11.76 27.226 13.456H23.362C22.978 12.656 22.434 12.056 21.73 11.656C21.042 11.256 20.242 11.056 19.33 11.056C18.354 11.056 17.482 11.288 16.714 11.752C15.962 12.2 15.37 12.84 14.938 13.672C14.522 14.504 14.314 15.48 14.314 16.6C14.314 17.704 14.522 18.68 14.938 19.528C15.37 20.36 15.962 21.008 16.714 21.472C17.482 21.92 18.354 22.144 19.33 22.144C20.242 22.144 21.042 21.944 21.73 21.544C22.434 21.128 22.978 20.52 23.362 19.72H27.226C26.666 21.432 25.682 22.768 24.274 23.728C22.882 24.672 21.242 25.144 19.354 25.144C17.754 25.144 16.306 24.784 15.01 24.064C13.73 23.328 12.714 22.312 11.962 21.016C11.226 19.72 10.858 18.248 10.858 16.6ZM37.3438 11.512C38.3518 11.512 39.2478 11.736 40.0318 12.184C40.8158 12.616 41.4238 13.264 41.8558 14.128C42.3038 14.976 42.5278 16 42.5278 17.2V25H39.1678V17.656C39.1678 16.6 38.9038 15.792 38.3758 15.232C37.8478 14.656 37.1278 14.368 36.2158 14.368C35.2878 14.368 34.5518 14.656 34.0078 15.232C33.4798 15.792 33.2158 16.6 33.2158 17.656V25H29.8558V7.24H33.2158V13.36C33.6478 12.784 34.2238 12.336 34.9438 12.016C35.6638 11.68 36.4638 11.512 37.3438 11.512ZM44.619 18.304C44.619 16.96 44.883 15.768 45.411 14.728C45.955 13.688 46.683 12.888 47.595 12.328C48.523 11.768 49.555 11.488 50.691 11.488C51.683 11.488 52.547 11.688 53.283 12.088C54.035 12.488 54.635 12.992 55.083 13.6V11.704H58.467V25H55.083V23.056C54.651 23.68 54.051 24.2 53.283 24.616C52.531 25.016 51.659 25.216 50.667 25.216C49.547 25.216 48.523 24.928 47.595 24.352C46.683 23.776 45.955 22.968 45.411 21.928C44.883 20.872 44.619 19.664 44.619 18.304ZM55.083 18.352C55.083 17.536 54.923 16.84 54.603 16.264C54.283 15.672 53.851 15.224 53.307 14.92C52.763 14.6 52.179 14.44 51.555 14.44C50.931 14.44 50.355 14.592 49.827 14.896C49.299 15.2 48.867 15.648 48.531 16.24C48.211 16.816 48.051 17.504 48.051 18.304C48.051 19.104 48.211 19.808 48.531 20.416C48.867 21.008 49.299 21.464 49.827 21.784C50.371 22.104 50.947 22.264 51.555 22.264C52.179 22.264 52.763 22.112 53.307 21.808C53.851 21.488 54.283 21.04 54.603 20.464C54.923 19.872 55.083 19.168 55.083 18.352ZM65.4207 14.464V20.896C65.4207 21.344 65.5247 21.672 65.7327 21.88C65.9567 22.072 66.3247 22.168 66.8367 22.168H68.3967V25H66.2847C63.4527 25 62.0367 23.624 62.0367 20.872V14.464H60.4527V11.704H62.0367V8.416H65.4207V11.704H68.3967V14.464H65.4207ZM73.9333 8.248V25H70.5733V8.248H73.9333ZM82.797 25.168C81.629 25.168 80.573 24.968 79.629 24.568C78.701 24.168 77.965 23.592 77.421 22.84C76.877 22.088 76.597 21.2 76.581 20.176H80.181C80.229 20.864 80.469 21.408 80.901 21.808C81.349 22.208 81.957 22.408 82.725 22.408C83.509 22.408 84.125 22.224 84.573 21.856C85.021 21.472 85.245 20.976 85.245 20.368C85.245 19.872 85.093 19.464 84.789 19.144C84.485 18.824 84.101 18.576 83.637 18.4C83.189 18.208 82.565 18 81.765 17.776C80.677 17.456 79.789 17.144 79.101 16.84C78.429 16.52 77.845 16.048 77.349 15.424C76.869 14.784 76.629 13.936 76.629 12.88C76.629 11.888 76.877 11.024 77.373 10.288C77.869 9.552 78.565 8.992 79.461 8.608C80.357 8.208 81.381 8.008 82.533 8.008C84.261 8.008 85.661 8.432 86.733 9.28C87.821 10.112 88.421 11.28 88.533 12.784H84.837C84.805 12.208 84.557 11.736 84.093 11.368C83.645 10.984 83.045 10.792 82.293 10.792C81.637 10.792 81.109 10.96 80.709 11.296C80.325 11.632 80.133 12.12 80.133 12.76C80.133 13.208 80.277 13.584 80.565 13.888C80.869 14.176 81.237 14.416 81.669 14.608C82.117 14.784 82.741 14.992 83.541 15.232C84.629 15.552 85.517 15.872 86.205 16.192C86.893 16.512 87.485 16.992 87.981 17.632C88.477 18.272 88.725 19.112 88.725 20.152C88.725 21.048 88.493 21.88 88.029 22.648C87.565 23.416 86.885 24.032 85.989 24.496C85.093 24.944 84.029 25.168 82.797 25.168Z" fill="#1B1738"/>
<path d="M10.858 16.6C10.858 14.952 11.226 13.48 11.962 12.184C12.714 10.872 13.73 9.856 15.01 9.136C16.306 8.4 17.754 8.032 19.354 8.032C21.226 8.032 22.866 8.512 24.274 9.472C25.682 10.432 26.666 11.76 27.226 13.456H23.362C22.978 12.656 22.434 12.056 21.73 11.656C21.042 11.256 20.242 11.056 19.33 11.056C18.354 11.056 17.482 11.288 16.714 11.752C15.962 12.2 15.37 12.84 14.938 13.672C14.522 14.504 14.314 15.48 14.314 16.6C14.314 17.704 14.522 18.68 14.938 19.528C15.37 20.36 15.962 21.008 16.714 21.472C17.482 21.92 18.354 22.144 19.33 22.144C20.242 22.144 21.042 21.944 21.73 21.544C22.434 21.128 22.978 20.52 23.362 19.72H27.226C26.666 21.432 25.682 22.768 24.274 23.728C22.882 24.672 21.242 25.144 19.354 25.144C17.754 25.144 16.306 24.784 15.01 24.064C13.73 23.328 12.714 22.312 11.962 21.016C11.226 19.72 10.858 18.248 10.858 16.6ZM37.3438 11.512C38.3518 11.512 39.2478 11.736 40.0318 12.184C40.8158 12.616 41.4238 13.264 41.8558 14.128C42.3038 14.976 42.5278 16 42.5278 17.2V25H39.1678V17.656C39.1678 16.6 38.9038 15.792 38.3758 15.232C37.8478 14.656 37.1278 14.368 36.2158 14.368C35.2878 14.368 34.5518 14.656 34.0078 15.232C33.4798 15.792 33.2158 16.6 33.2158 17.656V25H29.8558V7.24H33.2158V13.36C33.6478 12.784 34.2238 12.336 34.9438 12.016C35.6638 11.68 36.4638 11.512 37.3438 11.512ZM44.619 18.304C44.619 16.96 44.883 15.768 45.411 14.728C45.955 13.688 46.683 12.888 47.595 12.328C48.523 11.768 49.555 11.488 50.691 11.488C51.683 11.488 52.547 11.688 53.283 12.088C54.035 12.488 54.635 12.992 55.083 13.6V11.704H58.467V25H55.083V23.056C54.651 23.68 54.051 24.2 53.283 24.616C52.531 25.016 51.659 25.216 50.667 25.216C49.547 25.216 48.523 24.928 47.595 24.352C46.683 23.776 45.955 22.968 45.411 21.928C44.883 20.872 44.619 19.664 44.619 18.304ZM55.083 18.352C55.083 17.536 54.923 16.84 54.603 16.264C54.283 15.672 53.851 15.224 53.307 14.92C52.763 14.6 52.179 14.44 51.555 14.44C50.931 14.44 50.355 14.592 49.827 14.896C49.299 15.2 48.867 15.648 48.531 16.24C48.211 16.816 48.051 17.504 48.051 18.304C48.051 19.104 48.211 19.808 48.531 20.416C48.867 21.008 49.299 21.464 49.827 21.784C50.371 22.104 50.947 22.264 51.555 22.264C52.179 22.264 52.763 22.112 53.307 21.808C53.851 21.488 54.283 21.04 54.603 20.464C54.923 19.872 55.083 19.168 55.083 18.352ZM65.4207 14.464V20.896C65.4207 21.344 65.5247 21.672 65.7327 21.88C65.9567 22.072 66.3247 22.168 66.8367 22.168H68.3967V25H66.2847C63.4527 25 62.0367 23.624 62.0367 20.872V14.464H60.4527V11.704H62.0367V8.416H65.4207V11.704H68.3967V14.464H65.4207ZM73.9333 8.248V25H70.5733V8.248H73.9333ZM82.797 25.168C81.629 25.168 80.573 24.968 79.629 24.568C78.701 24.168 77.965 23.592 77.421 22.84C76.877 22.088 76.597 21.2 76.581 20.176H80.181C80.229 20.864 80.469 21.408 80.901 21.808C81.349 22.208 81.957 22.408 82.725 22.408C83.509 22.408 84.125 22.224 84.573 21.856C85.021 21.472 85.245 20.976 85.245 20.368C85.245 19.872 85.093 19.464 84.789 19.144C84.485 18.824 84.101 18.576 83.637 18.4C83.189 18.208 82.565 18 81.765 17.776C80.677 17.456 79.789 17.144 79.101 16.84C78.429 16.52 77.845 16.048 77.349 15.424C76.869 14.784 76.629 13.936 76.629 12.88C76.629 11.888 76.877 11.024 77.373 10.288C77.869 9.552 78.565 8.992 79.461 8.608C80.357 8.208 81.381 8.008 82.533 8.008C84.261 8.008 85.661 8.432 86.733 9.28C87.821 10.112 88.421 11.28 88.533 12.784H84.837C84.805 12.208 84.557 11.736 84.093 11.368C83.645 10.984 83.045 10.792 82.293 10.792C81.637 10.792 81.109 10.96 80.709 11.296C80.325 11.632 80.133 12.12 80.133 12.76C80.133 13.208 80.277 13.584 80.565 13.888C80.869 14.176 81.237 14.416 81.669 14.608C82.117 14.784 82.741 14.992 83.541 15.232C84.629 15.552 85.517 15.872 86.205 16.192C86.893 16.512 87.485 16.992 87.981 17.632C88.477 18.272 88.725 19.112 88.725 20.152C88.725 21.048 88.493 21.88 88.029 22.648C87.565 23.416 86.885 24.032 85.989 24.496C85.093 24.944 84.029 25.168 82.797 25.168Z" fill="url(#paint0_linear_28_3130)"/>
<defs>
<linearGradient id="paint0_linear_28_3130" x1="10" y1="13.4034" x2="16.7385" y2="41.3122" gradientUnits="userSpaceOnUse">
<stop stop-color="#6C5FD4"/>
<stop offset="1" stop-color="#5DD3A9"/>
</linearGradient>
</defs>
</svg>
